<?xml version="1.0" standalone="no"?>
<!DOCTYPE svg PUBLIC "-//W3C//DTD SVG 1.1//EN" "http://www.w3.org/Graphics/SVG/1.1/DTD/svg11.dtd" >
<svg xmlns="http://www.w3.org/2000/svg">
<metadata></metadata>
<defs>
<font id="arial_narrowbold" horiz-adv-x="934" >
<font-face units-per-em="2048" ascent="1638" descent="-410" />
<missing-glyph horiz-adv-x="467" />
<glyph horiz-adv-x="2048" />
<glyph horiz-adv-x="2048" />
<glyph unicode="&#xd;" horiz-adv-x="467" />
<glyph unicode=" "  horiz-adv-x="467" />
<glyph unicode="&#x09;" horiz-adv-x="467" />
<glyph unicode="&#xa0;" horiz-adv-x="467" />
<glyph unicode="!" horiz-adv-x="559" d="M150 1122v344h249v-344l-59 -744h-130zM160 0v281h230v-281h-230z" />
<glyph unicode="&#x22;" horiz-adv-x="797" d="M92 1218v248h251v-248l-38 -273h-170zM462 1218v248h251v-248l-38 -273h-169z" />
<glyph unicode="#" d="M15 365v220h148l49 295h-197v221h234l64 390h184l-64 -390h180l64 390h190l-66 -390h114v-221h-150l-50 -295h200v-220h-236l-66 -390h-183l64 390h-182l-65 -390h-185l64 390h-111zM348 585h182l48 295h-182z" />
<glyph unicode="$" d="M58 411l214 28q13 -79 49 -137.5t81 -84.5v419q-311 108 -311 445q0 172 87.5 280t223.5 124v99h118v-99q127 -19 206 -106.5t100 -241.5l-207 -33q-19 119 -99 160v-391q191 -63 259 -155q81 -110 81 -279q0 -188 -92 -309t-248 -148v-187h-118v182q-295 43 -344 434z M296 1097q0 -120 106 -176v346q-46 -19 -76 -66t-30 -104zM520 203q60 13 99.5 67.5t39.5 131.5q0 142 -139 191v-390z" />
<glyph unicode="%" horiz-adv-x="1493" d="M73 1104q0 201 72 294t191 93q123 0 195 -93t72 -294t-72 -294t-191 -93q-122 0 -194.5 92.5t-72.5 294.5zM253 1106q0 -140 23 -184t60 -44q38 0 61 44t23 184t-23 184t-60 44q-38 0 -61 -44t-23 -184zM341 -56l641 1547h165l-635 -1547h-171zM884 329q0 201 72.5 294 t192.5 93q121 0 193 -93t72 -294t-72 -294.5t-191 -93.5q-122 0 -194.5 93t-72.5 295zM1064 330q0 -140 22.5 -184t60.5 -44t61 44t23 184t-23 184t-60 44q-39 0 -61.5 -44t-22.5 -184z" />
<glyph unicode="&#x26;" horiz-adv-x="1212" d="M74 402q0 283 274 449q-123 176 -123 322q0 141 92 229.5t244 88.5q147 0 239.5 -92.5t92.5 -240.5q0 -95 -46.5 -174.5t-172.5 -176.5l167 -269q28 62 51 167l208 -58q-48 -214 -104 -302q38 -43 99.5 -96t90.5 -70l-140 -217q-102 60 -197 168q-75 -83 -157.5 -119.5 t-191.5 -36.5q-217 0 -321.5 132t-104.5 296zM310 411q0 -94 50.5 -149.5t129.5 -55.5q103 0 213 112l-235 353q-77 -48 -117.5 -116.5t-40.5 -143.5zM450 1183q0 -53 52 -127l57 -80l62 58q69 65 69 128q0 58 -35 94.5t-88 36.5q-52 0 -84.5 -32t-32.5 -78z" />
<glyph unicode="'" horiz-adv-x="399" d="M75 1218v248h251v-248l-38 -273h-170z" />
<glyph unicode="(" horiz-adv-x="559" d="M87 533q0 255 67 497.5t193 460.5h157q-115 -312 -155.5 -522t-40.5 -444q0 -242 57 -512q40 -190 137 -444h-158q-124 225 -190.5 476.5t-66.5 487.5z" />
<glyph unicode=")" horiz-adv-x="559" d="M55 1491h157q129 -226 194.5 -466t65.5 -479q0 -240 -65 -493.5t-192 -483.5h-158q97 252 136 439q58 272 58 517q0 234 -40.5 444t-155.5 522z" />
<glyph unicode="*" horiz-adv-x="653" d="M23 1166l48 176q104 -52 192 -117q-20 161 -19 266h145q0 -71 -22 -268l71 39q75 41 136 70l44 -181q-92 -25 -211 -49l145 -202l-125 -101l-112 223q-46 -103 -114 -230l-124 117q39 54 76 99l79 94q-20 4 -118 33q-68 21 -91 31z" />
<glyph unicode="+" horiz-adv-x="981" d="M69 592v263h315v381h210v-381h316v-263h-316v-381h-210v381h-315z" />
<glyph unicode="," horiz-adv-x="467" d="M96 -211q68 28 98 75.5t32 135.5h-111v281h230v-201q0 -171 -40 -254q-49 -103 -164 -153z" />
<glyph unicode="-" horiz-adv-x="559" d="M53 391v281h453v-281h-453z" />
<glyph unicode="." horiz-adv-x="467" d="M121 0v281h231v-281h-231z" />
<glyph unicode="/" horiz-adv-x="467" d="M-2 -25l298 1516h173l-301 -1516h-170z" />
<glyph unicode="0" d="M71 726q0 413 108 579.5t282 166.5q175 0 283 -166.5t108 -582.5q0 -415 -108 -581.5t-282 -166.5q-175 0 -283 165t-108 586zM312 723q0 -336 40.5 -425.5t108.5 -89.5q69 0 109 90t40 425q0 336 -40 426t-109 90q-68 0 -108.5 -90t-40.5 -426z" />
<glyph unicode="1" d="M133 846v255q96 39 199 139.5t143 231.5h186v-1472h-230v1059q-129 -145 -298 -213z" />
<glyph unicode="2" d="M42 0q13 148 79.5 281.5t258.5 350.5q152 173 187 234q52 89 52 179q0 96 -43 145t-113 49q-153 0 -165 -229l-229 28q21 224 124.5 329t275.5 105q189 0 285 -123t96 -282q0 -90 -24.5 -174.5t-75.5 -170t-170 -218.5q-111 -125 -140.5 -165t-47.5 -78h458v-261h-808z " />
<glyph unicode="3" d="M63 389l223 33q9 -104 57 -159t113 -55q71 0 120 65t49 180q0 107 -47 168t-114 61q-44 0 -105 -21l25 229q89 -2 141 48q51 50 51 141q0 76 -37 119t-95 43t-100.5 -49.5t-50.5 -146.5l-213 44q33 201 129 292t242 91q164 0 260.5 -117t96.5 -259q0 -96 -43.5 -173 t-130.5 -135q101 -27 164.5 -119t63.5 -230q0 -201 -119.5 -332.5t-284.5 -131.5q-158 0 -267.5 111t-127.5 303z" />
<glyph unicode="4" d="M31 295v246l521 931h194v-930h149v-247h-149v-295h-223v295h-492zM247 542h276v501z" />
<glyph unicode="5" d="M75 377l230 29q9 -96 59 -151t110 -55q71 0 122 70.5t51 216.5q0 138 -50.5 204t-128.5 66q-99 0 -178 -107l-187 33l118 763h609v-263h-434l-37 -249q78 47 158 47q142 0 241 -112q125 -143 125 -377q0 -193 -106.5 -355t-304.5 -162q-160 0 -267.5 104.5t-129.5 297.5z " />
<glyph unicode="6" d="M72 715q0 403 123 580t316 177q133 0 224.5 -90.5t116.5 -274.5l-223 -30q-16 164 -131 164q-75 0 -124.5 -82t-62.5 -331q43 62 96 93t117 31q141 0 246 -131.5t105 -349.5q0 -232 -111 -364t-275 -132q-180 0 -298.5 171.5t-118.5 568.5zM331 494q0 -139 51.5 -212.5 t117.5 -73.5q64 0 106.5 61t42.5 200q0 144 -46 210t-114 66q-66 0 -112 -63t-46 -188z" />
<glyph unicode="7" d="M71 1185v261h788v-204q-97 -117 -196.5 -332.5t-154 -462t-54.5 -447.5h-222q8 312 104 623t259 562h-524z" />
<glyph unicode="8" d="M69 419q0 132 52 227t149 145q-85 44 -128 120t-43 183q0 173 98 275.5t264 102.5q176 0 268 -109.5t92 -266.5q0 -107 -44.5 -185.5t-121.5 -119.5q103 -50 154 -140.5t51 -222.5q0 -136 -50.5 -240t-139.5 -159t-200 -55q-174 0 -287.5 120.5t-113.5 324.5zM296 446 q0 -118 50 -182t120 -64t117.5 61t47.5 183q0 105 -48.5 166t-119.5 61q-70 0 -118.5 -61.5t-48.5 -163.5zM317 1074q0 -86 40.5 -132t102.5 -46q63 0 104 46t41 132q0 83 -40.5 129t-101.5 46q-64 0 -105 -46.5t-41 -128.5z" />
<glyph unicode="9" d="M53 974q0 232 111 365t274 133q182 0 300 -171.5t118 -568.5q0 -404 -123 -581t-319 -177q-136 0 -224.5 89.5t-113.5 275.5l223 30q16 -163 130 -163q77 0 126 81.5t63 330.5q-43 -61 -97 -92t-120 -31q-137 0 -242.5 131t-105.5 348zM279 975q0 -142 46.5 -208 t114.5 -66q65 0 111.5 63t46.5 189q0 138 -52 212t-118 74q-64 0 -106.5 -61t-42.5 -203z" />
<glyph unicode=":" horiz-adv-x="559" d="M164 0v281h231v-281h-231zM164 781v281h231v-281h-231z" />
<glyph unicode=";" horiz-adv-x="559" d="M139 -211q68 28 98 76.5t32 134.5h-111v281h230v-201q0 -171 -40 -254q-49 -103 -164 -153zM158 781v281h230v-281h-230z" />
<glyph unicode="&#x3c;" horiz-adv-x="981" d="M78 604v242l824 435v-285l-574 -268l574 -278v-283z" />
<glyph unicode="=" horiz-adv-x="981" d="M69 372v259h841v-259h-841zM69 816v258h841v-258h-841z" />
<glyph unicode="&#x3e;" horiz-adv-x="981" d="M77 166v283l576 276l-576 273v281l825 -435v-240z" />
<glyph unicode="?" horiz-adv-x="1026" d="M87 1052q9 188 129.5 308.5t302.5 120.5q185 0 308 -121t123 -302q0 -92 -43 -174.5t-185 -225.5q-73 -74 -90.5 -119t-15.5 -161h-209l-1 64q0 129 34 209t132 176q109 108 131 148t22 93q0 87 -56.5 143t-142.5 56q-185 0 -228 -247zM407 0v281h231v-281h-231z" />
<glyph unicode="@" horiz-adv-x="1638" d="M50 486q0 297 115 534t301.5 354.5t423.5 117.5q203 0 360.5 -94.5t248 -272t90.5 -404.5q0 -261 -137 -474q-159 -247 -406 -247q-66 0 -101 27t-48 87q-96 -114 -223 -114q-132 0 -224 112t-92 305q0 190 71 355t167 238.5t207 73.5q73 0 127 -34t89 -102l20 111h216 l-123 -717q-12 -69 -12 -90q0 -23 9.5 -35.5t22.5 -12.5q38 0 100 56q83 74 136 203t53 267q0 168 -72.5 304.5t-192 205t-289.5 68.5q-202 0 -352.5 -95.5t-243 -292.5t-92.5 -451q0 -217 87 -383t238 -249.5t369 -83.5q196 0 337 66.5t227 199.5h174q-87 -215 -271 -332.5 t-451 -117.5q-272 0 -460.5 107t-293.5 313.5t-105 496.5zM571 430q0 -129 43 -188t107 -59q56 0 103 42q61 54 105.5 184t44.5 262q0 113 -44 173t-107 60q-101 0 -164 -114q-88 -160 -88 -360z" />
<glyph unicode="A" horiz-adv-x="1212" d="M0 0l468 1466h257l481 -1466h-264l-105 333h-480l-99 -333h-258zM431 580h328l-165 544z" />
<glyph unicode="B" horiz-adv-x="1212" d="M122 0v1466h481q197 0 277 -36t135 -127t55 -206q0 -106 -47 -191.5t-122 -126.5q107 -38 167.5 -130t60.5 -224q0 -160 -77 -270.5t-182 -136.5q-73 -18 -339 -18h-409zM364 247h225q148 0 190 15.5t70.5 61t28.5 115.5q0 72 -30.5 118.5t-81 64t-206.5 17.5h-196v-392z M364 883h160q144 0 178 5q62 10 97 52.5t35 115.5q0 65 -28.5 105.5t-69 50.5t-232.5 10h-140v-339z" />
<glyph unicode="C" horiz-adv-x="1212" d="M80 720q0 375 169 587q147 184 395 184q202 0 338 -138q97 -98 142 -291l-240 -70q-23 119 -91.5 182.5t-161.5 63.5q-133 0 -217 -116t-84 -383q0 -277 82 -394t213 -117q96 0 166 74.5t101 236.5l235 -91q-55 -246 -183 -359.5t-315 -113.5q-235 0 -381 181 q-168 209 -168 564z" />
<glyph unicode="D" horiz-adv-x="1212" d="M121 0v1466h443q168 0 253.5 -37.5t157.5 -126.5t113 -231t41 -353q0 -190 -43 -330.5t-109 -222.5t-159.5 -123.5t-240.5 -41.5h-456zM363 247h182q117 0 169.5 22t86 66.5t55.5 140.5t22 253q0 163 -22.5 257t-70 148t-115.5 71q-51 13 -197 13h-110v-971z" />
<glyph unicode="E" horiz-adv-x="1120" d="M123 0v1466h892v-248h-650v-325h604v-247h-604v-399h672v-247h-914z" />
<glyph unicode="F" horiz-adv-x="1026" d="M124 0v1466h824v-248h-582v-347h503v-248h-503v-623h-242z" />
<glyph unicode="G" horiz-adv-x="1307" d="M81 735q0 242 80.5 414t209 257t307.5 85q215 0 344.5 -109.5t166.5 -321.5l-240 -55q-27 113 -99 173t-172 60q-155 0 -251 -120.5t-96 -367.5q0 -265 104 -403q89 -119 241 -119q71 0 147.5 33.5t136.5 91.5v186h-278v247h523v-584q-79 -93 -224 -160t-291 -67 q-178 0 -314 87.5t-215.5 262t-79.5 410.5z" />
<glyph unicode="H" horiz-adv-x="1212" d="M123 0v1466h242v-577h476v577h243v-1466h-243v641h-476v-641h-242z" />
<glyph unicode="I" horiz-adv-x="467" d="M115 0v1466h242v-1466h-242z" />
<glyph unicode="J" d="M29 453l229 32q4 -129 33 -183q39 -74 117 -74q76 0 112 53.5t36 237.5v947h243v-928q0 -225 -45 -335t-134.5 -169t-220.5 -59q-173 0 -271 119t-99 359z" />
<glyph unicode="K" horiz-adv-x="1212" d="M125 0v1466h242v-651l491 651h327l-453 -571l477 -895h-314l-331 688l-197 -245v-443h-242z" />
<glyph unicode="L" horiz-adv-x="1026" d="M129 0v1454h242v-1207h604v-247h-846z" />
<glyph unicode="M" horiz-adv-x="1399" d="M119 0v1466h363l218 -1000l216 1000h364v-1466h-225v1154l-239 -1154h-234l-237 1154v-1154h-226z" />
<glyph unicode="N" horiz-adv-x="1212" d="M125 0v1466h236l492 -979v979h226v-1466h-244l-484 956v-956h-226z" />
<glyph unicode="O" horiz-adv-x="1307" d="M74 724q0 262 77.5 431.5t202.5 252.5t303 83q258 0 420.5 -197t162.5 -561q0 -368 -172 -575q-151 -183 -410 -183q-261 0 -412 181q-172 207 -172 568zM324 734q0 -253 96 -379.5t238 -126.5q143 0 237 125.5t94 385.5q0 255 -91.5 377t-239.5 122t-241 -123t-93 -381z " />
<glyph unicode="P" horiz-adv-x="1120" d="M122 0v1466h390q218 0 285 -21q107 -34 176.5 -145t69.5 -286q0 -159 -60 -266.5t-150 -151t-310 -43.5h-159v-553h-242zM364 802h134q135 0 183.5 19t79.5 68.5t31 121.5q0 73 -32 123t-79 67t-199 17h-118v-416z" />
<glyph unicode="Q" horiz-adv-x="1307" d="M73 733q0 370 161.5 564t423.5 194q259 0 419.5 -194.5t160.5 -563.5q0 -179 -35.5 -308t-112.5 -239q89 -77 194 -124l-89 -209q-54 20 -106 54q-12 7 -163 131q-119 -63 -272 -63q-260 0 -420.5 194.5t-160.5 563.5zM323 733q0 -261 93.5 -386.5t232.5 -125.5 q52 0 99 21q-76 60 -150 92l68 169q120 -50 229 -150q93 130 93 379q0 258 -93 382t-239 124t-239.5 -124t-93.5 -381z" />
<glyph unicode="R" horiz-adv-x="1212" d="M123 0v1466h511q196 0 280 -39.5t138 -137t54 -233.5q0 -172 -82.5 -277t-234.5 -132q78 -56 129 -122.5t139 -238.5l146 -286h-289l-176 319q-95 173 -129 216.5t-72 60t-122 16.5h-50v-612h-242zM365 846h180q165 0 210 14.5t73 58.5t28 117q0 70 -28 112.5t-76 58.5 q-34 11 -197 11h-190v-372z" />
<glyph unicode="S" horiz-adv-x="1120" d="M61 477l237 28q40 -281 262 -281q110 0 173 57.5t63 142.5q0 50 -22 85t-67 57.5t-218 75.5q-155 47 -227 102t-114.5 144.5t-42.5 192.5q0 120 54.5 216t150.5 145t237 49q212 0 331 -115t126 -329l-243 -13q-16 118 -69 165t-151 47t-151 -41t-53 -102q0 -60 48 -101 t221 -90q183 -53 264.5 -111.5t124.5 -151t43 -224.5q0 -191 -117.5 -321t-367.5 -130q-442 0 -492 503z" />
<glyph unicode="T" horiz-adv-x="1026" d="M36 1218v248h955v-248h-356v-1218h-242v1218h-357z" />
<glyph unicode="U" horiz-adv-x="1212" d="M120 684v782h242v-794q0 -185 9 -241q16 -97 76.5 -150t159.5 -53q84 0 137 37.5t72.5 104t19.5 285.5v811h243v-770q0 -295 -31.5 -426.5t-142 -213t-291.5 -81.5q-188 0 -293.5 67.5t-153 190t-47.5 451.5z" />
<glyph unicode="V" horiz-adv-x="1120" d="M0 1466h263l304 -1085l294 1085h258l-430 -1466h-260z" />
<glyph unicode="W" horiz-adv-x="1585" d="M5 1466h249l180 -1007l220 1007h289l211 -1024l185 1024h244l-292 -1466h-258l-240 1096l-238 -1096h-263z" />
<glyph unicode="X" horiz-adv-x="1120" d="M1 0l411 765l-373 701h284l241 -471l236 471h281l-373 -712l411 -754h-293l-267 507l-267 -507h-291z" />
<glyph unicode="Y" horiz-adv-x="1120" d="M-2 1466h284l283 -580l278 580h279l-442 -851v-615h-242v617z" />
<glyph unicode="Z" horiz-adv-x="1026" d="M18 0v267l632 951h-561v248h880v-230l-658 -989h684v-247h-977z" />
<glyph unicode="[" horiz-adv-x="559" d="M119 -413v1879h408v-221h-189v-1437h189v-221h-408z" />
<glyph unicode="\" horiz-adv-x="467" d="M-2 1491h170l301 -1516h-173z" />
<glyph unicode="]" horiz-adv-x="559" d="M31 -192h189v1439h-189v219h408v-1879h-408v221z" />
<glyph unicode="^" horiz-adv-x="981" d="M95 692l308 799h183l301 -799h-234l-162 489l-161 -489h-235z" />
<glyph unicode="_" d="M-12 -154h959v-102h-959v102z" />
<glyph unicode="`" horiz-adv-x="559" d="M35 1491h258l114 -299h-146z" />
<glyph unicode="a" d="M60 289q0 90 33 157t93 107t192 71q160 37 223 69q0 88 -12.5 115.5t-46 45t-94.5 17.5q-62 0 -97.5 -28t-57.5 -105l-209 46q38 161 125.5 231.5t251.5 70.5q146 0 223 -41t110 -111.5t33 -256.5l-2 -328q0 -138 11 -205.5t41 -143.5h-228l-30 116q-59 -70 -126.5 -105 t-143.5 -35q-127 0 -208 85.5t-81 227.5zM291 318q0 -61 36.5 -102.5t91.5 -41.5q49 0 97 33.5t66.5 79.5t18.5 167v56q-44 -18 -137 -42q-107 -28 -140 -62t-33 -88z" />
<glyph unicode="b" horiz-adv-x="1026" d="M110 0v1466h231v-528q53 74 116.5 111t136.5 37q154 0 260.5 -139t106.5 -410q0 -270 -109 -415.5t-256 -145.5q-75 0 -148 46t-124 134v-156h-214zM339 554q0 -137 26 -209t74 -109.5t101 -37.5q76 0 130 79.5t54 251.5q0 181 -54.5 261.5t-138.5 80.5q-80 0 -136 -78 t-56 -239z" />
<glyph unicode="c" d="M70 528q0 273 116.5 415.5t305.5 142.5q153 0 249.5 -81t138.5 -257l-227 -50q-25 167 -157 167q-85 0 -137 -72t-52 -243q0 -189 52 -267t139 -78q65 0 107 44.5t60 157.5l227 -47q-70 -384 -403 -384q-213 0 -316 162t-103 390z" />
<glyph unicode="d" horiz-adv-x="1026" d="M69 537q0 272 106 410.5t261 138.5q73 0 136.5 -37t116.5 -111v528h231v-1466h-215v156q-53 -90 -125 -135t-148 -45q-146 0 -254.5 145.5t-108.5 415.5zM305 554q0 -144 24.5 -214.5t70 -106t102.5 -35.5q76 0 132 82t56 247q0 183 -54.5 263.5t-138.5 80.5 q-80 0 -136 -79t-56 -238z" />
<glyph unicode="e" d="M54 525q0 266 125 426q106 135 274 135q187 0 293 -138q122 -158 122 -466l-1 -32h-577q2 -126 56.5 -195t131.5 -69q111 0 148 152l229 -47q-46 -160 -143 -237.5t-236 -77.5q-193 0 -298 129q-124 150 -124 420zM294 622h345q-3 124 -53 186.5t-119 62.5 q-73 0 -123 -65q-51 -66 -50 -184z" />
<glyph unicode="f" horiz-adv-x="559" d="M20 841v221h128v80q0 145 27.5 210t89 102t151.5 37q98 0 192 -36l-30 -196q-56 16 -107 16q-49 0 -71 -28t-22 -110v-75h172v-221h-172v-841h-230v841h-128z" />
<glyph unicode="g" horiz-adv-x="1026" d="M69 537q0 272 107.5 410.5t260.5 138.5q81 0 147.5 -43t118.5 -130v149h216v-953q0 -229 -42 -332t-129.5 -155.5t-242.5 -52.5q-143 0 -229 38t-131.5 113.5t-45.5 174.5v35l264 -39q6 -58 36.5 -82.5t96.5 -24.5q76 0 123 25q33 18 51 60t18 148v155q-52 -86 -117 -129 t-144 -43q-145 0 -244 131q-114 150 -114 406zM305 553q0 -170 54.5 -248t131.5 -78q83 0 142 79t59 240q0 166 -56.5 245.5t-139.5 79.5q-82 0 -136.5 -78t-54.5 -240z" />
<glyph unicode="h" horiz-adv-x="1026" d="M120 0v1466h231v-539q55 80 121.5 119.5t144.5 39.5q104 0 174 -55t100 -156q22 -74 22 -252v-623h-230v561q0 195 -25 244q-35 66 -119 66q-89 0 -138.5 -71.5t-49.5 -267.5v-532h-231z" />
<glyph unicode="i" horiz-adv-x="467" d="M121 0v1062h231v-1062h-231zM121 1206v260h231v-260h-231z" />
<glyph unicode="j" horiz-adv-x="467" d="M-76 -401l40 240q33 -9 57 -9q60 0 83 48q12 26 12 171v1013h231v-1029q0 -217 -24 -297t-86 -123.5t-153 -43.5q-69 0 -160 30zM116 1206v260h231v-260h-231z" />
<glyph unicode="k" d="M113 0v1466h231v-778l269 374h284l-298 -388l319 -674h-248l-220 477l-106 -137v-340h-231z" />
<glyph unicode="l" horiz-adv-x="467" d="M121 0v1466h231v-1466h-231z" />
<glyph unicode="m" horiz-adv-x="1493" d="M103 0v1062h212v-145q57 85 125 127t147 42q84 0 145.5 -42t100.5 -127q58 85 124.5 127t141.5 42q89 0 153.5 -42.5t98 -121.5t33.5 -243v-679h-231v607q0 159 -28 211.5t-94 52.5q-77 0 -124 -73.5t-47 -287.5v-510h-231v582q0 173 -19 223q-25 66 -101 66 q-51 0 -94 -34t-62 -99.5t-19 -221.5v-516h-231z" />
<glyph unicode="n" horiz-adv-x="1026" d="M119 0v1062h214v-156q57 90 128.5 135t158.5 45q101 0 170.5 -52.5t96 -135t26.5 -238.5v-660h-231v542q0 163 -13 217t-48.5 83t-80.5 29q-58 0 -105 -37.5t-66 -103.5t-19 -249v-481h-231z" />
<glyph unicode="o" horiz-adv-x="1026" d="M67 546q0 156 62 284t162 192t225 64q210 0 330 -164.5t120 -384.5q0 -164 -62.5 -296t-164 -198.5t-222.5 -66.5q-194 0 -322 148t-128 422zM303 531q0 -161 63 -243.5t152 -82.5q87 0 149 83t62 245q0 158 -63 241t-151 83q-87 0 -149.5 -83t-62.5 -243z" />
<glyph unicode="p" horiz-adv-x="1026" d="M114 -404v1466h215v-156q44 84 116 132t155 48q149 0 256.5 -142t107.5 -403q0 -274 -108 -419.5t-257 -145.5q-69 0 -128.5 33.5t-125.5 121.5v-535h-231zM342 549q0 -180 58.5 -265t141.5 -85q79 0 133 78.5t54 256.5q0 169 -55.5 249.5t-135.5 80.5q-84 0 -140 -78.5 t-56 -236.5z" />
<glyph unicode="q" horiz-adv-x="1026" d="M75 543q0 260 107.5 401.5t262.5 141.5q83 0 148.5 -45t114.5 -136v157h212v-1466h-230v534q-47 -74 -115 -114t-143 -40q-146 0 -251.5 146t-105.5 421zM311 527q0 -175 54.5 -252t132.5 -77q79 0 139.5 86t60.5 260q0 165 -55 243.5t-137 78.5q-83 0 -139 -80.5 t-56 -258.5z" />
<glyph unicode="r" horiz-adv-x="653" d="M111 0v1062h214v-151q55 106 98.5 140.5t100.5 34.5q79 0 151 -53l-72 -245q-57 46 -108 46q-48 0 -84.5 -35.5t-52.5 -128.5t-16 -342v-328h-231z" />
<glyph unicode="s" d="M40 303l231 43q30 -167 186 -167q83 0 124 32t41 83q0 35 -18 55q-19 20 -75 35q-284 75 -361 143q-96 85 -96 233t94 237t273 89q171 0 260 -66.5t125 -214.5l-217 -49q-29 128 -164 128q-85 0 -121 -24.5t-36 -63.5q0 -35 33 -58q33 -24 205 -72q193 -54 262 -131 q68 -77 68 -205q0 -154 -105.5 -254t-291.5 -100q-169 0 -276 83.5t-141 243.5z" />
<glyph unicode="t" horiz-adv-x="559" d="M25 838v224h106v211l231 164v-375h157v-224h-157v-428q0 -139 7 -161q14 -40 57 -40q32 0 92 27l20 -218q-80 -42 -181 -42q-88 0 -141 42t-71 121q-14 58 -14 236v463h-106z" />
<glyph unicode="u" horiz-adv-x="1026" d="M115 390v672h231v-488q0 -209 10.5 -265.5t46.5 -87.5t87 -31q58 0 107 40.5t64.5 104t15.5 279.5v448h230v-1062h-214v159q-48 -86 -126 -134.5t-163 -48.5q-86 0 -154 45t-101.5 128t-33.5 241z" />
<glyph unicode="v" d="M9 1062h242l164 -542l47 -181l49 181l166 542h236l-346 -1062h-207z" />
<glyph unicode="w" horiz-adv-x="1307" d="M8 1062h224l163 -696l150 696h222l145 -696l167 696h227l-280 -1062h-221l-150 683l-148 -683h-223z" />
<glyph unicode="x" d="M10 0l314 547l-301 515h282l154 -292l162 292h270l-295 -503l323 -559h-283l-177 329l-180 -329h-269z" />
<glyph unicode="y" d="M11 1062h246l207 -754l204 754h238l-307 -1022l-59 -199q-39 -112 -77.5 -164t-98 -80t-146.5 -28q-67 0 -131 17l-20 220q54 -13 97 -13q66 0 108.5 44t69.5 160z" />
<glyph unicode="z" horiz-adv-x="840" d="M28 0v219l327 457q80 112 118 159q-40 -3 -106 -4l-307 -2v233h720v-199l-333 -468l-117 -155q96 7 119 7h357v-247h-778z" />
<glyph unicode="{" horiz-adv-x="653" d="M49 410v240q70 4 105.5 33t55 96.5t19.5 226.5q0 198 15 272.5t49.5 117.5t95.5 69t177 26h44v-239q-87 0 -114 -11t-40.5 -37t-13.5 -97q0 -121 -9 -278q-6 -107 -46 -187q-29 -58 -99 -112q62 -43 99.5 -115t44.5 -181q10 -148 10 -279q0 -69 14.5 -95.5t41.5 -38.5 t112 -12v-240h-44q-116 0 -172 22.5t-94 67.5t-55 117t-17 244q0 189 -17.5 256.5t-53.5 98.5t-108 35z" />
<glyph unicode="|" horiz-adv-x="471" d="M145 -431v1922h183v-1922h-183z" />
<glyph unicode="}" horiz-adv-x="653" d="M37 -191q84 0 111.5 12t42 38.5t14.5 93.5q0 114 9 274q7 113 45 186.5t100 116.5q-70 54 -99 112q-39 78 -46 188q-10 144 -10 277q0 71 -13 96.5t-40 37t-114 11.5v239h44q116 0 172 -22t94 -67t54.5 -117t16.5 -244q0 -190 17.5 -257.5t54 -98.5t108.5 -35v-240 q-70 -4 -105.5 -33t-55 -96.5t-19.5 -225.5q0 -198 -15 -272.5t-49.5 -118t-95.5 -69.5t-177 -26h-44v240z" />
<glyph unicode="~" horiz-adv-x="981" d="M55 519v259q104 138 242 138q52 0 95.5 -12.5t143.5 -61.5q126 -62 166 -62q47 0 108 35.5t116 108.5v-270q-46 -58 -127 -103q-52 -29 -118 -29q-41 0 -80 11.5t-124 57.5q-126 67 -198 67q-115 0 -224 -139z" />
<glyph unicode="&#xa0;" />
<glyph unicode="&#xa1;" horiz-adv-x="559" d="M160 -63l59 741h131l59 -741v-344h-249v344zM169 781v281h231v-281h-231z" />
<glyph unicode="&#xa2;" d="M69 534q0 268 125 420q108 132 297 132q37 0 77 -6l93 376l100 -35l-92 -371q156 -73 210 -302l-227 -50q-9 71 -42 113l-149 -602q18 -4 37 -4q64 0 106 44.5t60 157.5l226 -47q-69 -384 -402 -384q-41 0 -83 7l-96 -386l-99 34l95 385q-107 57 -171.5 188.5 t-64.5 329.5zM306 549q0 -194 61 -280l147 595l-19 1q-86 0 -137.5 -72t-51.5 -244z" />
<glyph unicode="&#xa3;" d="M11 217q86 75 129.5 165.5t43.5 178.5q0 29 -2 60h-171v221h129q-34 119 -34 241q0 178 109 293t273 115q154 0 252.5 -95t122.5 -290l-222 -40q-29 201 -159 201q-63 0 -108 -52t-45 -135q0 -101 41 -238h256v-221h-218q2 -22 2 -45q0 -77 -24.5 -144.5t-101.5 -176.5 q46 28 114 28q30 0 56 -5q13 -3 108 -32q54 -17 90 -17q63 0 168 56l88 -238q-103 -70 -226 -70q-74 0 -194 42q-126 43 -185 43q-100 0 -204 -87z" />
<glyph unicode="&#xa4;" d="M37 1072l136 178l112 -136q43 29 88 43t91 14q47 0 91.5 -14t87.5 -43l110 134l137 -169l-109 -133q24 -53 35.5 -107.5t11.5 -110.5q0 -55 -11.5 -109.5t-35.5 -108.5l110 -133l-136 -171l-112 136q-41 -28 -85.5 -42.5t-93.5 -14.5q-46 0 -90.5 14t-86.5 42l-106 -131 l-140 168l107 132q-23 51 -35 105.5t-12 112.5t11 111t33 102zM298 728q0 -87 50 -144.5t116 -57.5t116 57.5t50 144.5t-50 144.5t-116 57.5t-116 -57.5t-50 -144.5z" />
<glyph unicode="&#xa5;" d="M1 1466h253l164 -426q31 -81 44 -141q16 67 44 141l167 426h253l-272 -666h231v-186h-308v-144h308v-186h-308v-284h-231v284h-304v186h304v144h-304v186h228z" />
<glyph unicode="&#xa6;" horiz-adv-x="471" d="M145 360h183v-791h-183v791zM145 701v790h183v-790h-183z" />
<glyph unicode="&#xa7;" d="M49 623q0 216 152 322q-41 54 -62 110t-21 113q0 144 90.5 233.5t239.5 89.5q152 0 247.5 -89t113.5 -248l-225 -29q-7 152 -126 152q-50 0 -79.5 -27t-29.5 -67q0 -43 28 -80q27 -37 185 -161q154 -121 208.5 -182.5t80 -128.5t25.5 -146q0 -186 -149 -314 q50 -56 74.5 -119.5t24.5 -133.5q0 -158 -95 -253.5t-257 -95.5q-156 0 -258 94.5t-121 268.5l225 33q28 -181 160 -181q52 0 85.5 33t33.5 85q0 23 -7.5 43.5t-22.5 39.5q-30 38 -213 178q-188 145 -247.5 242.5t-59.5 217.5zM258 680q0 -101 111 -192l234 -195 q72 79 72 145q0 38 -21 73t-102 107l-223 198q-30 -21 -54 -64q-17 -32 -17 -72z" />
<glyph unicode="&#xa8;" horiz-adv-x="559" d="M4 1250v241h198v-241h-198zM357 1250v241h198v-241h-198z" />
<glyph unicode="&#xa9;" horiz-adv-x="1237" d="M-8 730q0 215 90.5 395.5t234.5 275.5t303 95q160 0 303.5 -95t234 -275.5t90.5 -395.5t-90.5 -395.5t-234.5 -275.5t-303 -95t-303 95t-234.5 275.5t-90.5 395.5zM116 730q0 -173 72.5 -318t188 -221t243.5 -76t243.5 76t188.5 221t73 318t-73 318t-188.5 221t-243.5 76 t-243.5 -76t-188 -221t-72.5 -318zM312 724q0 210 89.5 320t229.5 110q201 0 274 -243l-133 -38q-42 139 -146 139q-73 0 -121.5 -68t-48.5 -213q0 -147 47 -216.5t109 -69.5q121 0 161 171l132 -54q-32 -130 -105 -195t-171 -65q-135 0 -226 109.5t-91 312.5z" />
<glyph unicode="&#xaa;" horiz-adv-x="621" d="M31 958q0 67 23 112t65 70t168 55q65 16 103 33q-3 66 -11 79q-18 27 -72 27q-43 0 -64 -16q-16 -12 -34 -66l-155 38q19 104 78 152.5t173 48.5q111 0 171 -34q46 -26 66 -86q15 -43 15 -162v-239q0 -104 5 -139t19 -70h-155q-12 26 -19 71q-36 -44 -80.5 -66.5 t-96.5 -22.5q-89 0 -144 58t-55 157zM201 974q0 -33 23 -57t56 -24q47 0 78.5 41t31.5 121v40q-18 -13 -77 -28q-71 -18 -88 -35q-24 -25 -24 -58z" />
<glyph unicode="&#xab;" d="M79 532l259 451h181l-212 -451l212 -462h-181zM401 532l259 451h181l-213 -451l213 -462h-181z" />
<glyph unicode="&#xac;" horiz-adv-x="981" d="M69 817v257h841v-698h-211v441h-630z" />
<glyph unicode="&#xad;" horiz-adv-x="559" d="M53 391v281h453v-281h-453z" />
<glyph unicode="&#xae;" horiz-adv-x="1237" d="M-8 730q0 215 90.5 395.5t234.5 275.5t303 95q160 0 303.5 -95t234 -275.5t90.5 -395.5t-90.5 -395.5t-234.5 -275.5t-303 -95t-303 95t-234.5 275.5t-90.5 395.5zM117 730q0 -173 72.5 -318.5t188.5 -222t243 -76.5q128 0 243.5 76.5t188.5 222t73 318.5t-73 318.5 t-188.5 221.5t-243.5 76t-243.5 -76t-188 -221.5t-72.5 -318.5zM336 320v813h136q203 0 240 -5q73 -12 119 -70.5t46 -152.5q0 -93 -49 -154t-131 -75q40 -19 66.5 -55.5t75.5 -136.5l78 -164h-167l-56 132q-56 133 -93 167.5t-94 34.5h-35v-334h-136zM472 782h54 q111 0 136 8q33 9 52 37t19 67t-19.5 65.5t-52.5 36.5q-26 8 -135 8h-54v-222z" />
<glyph unicode="&#xaf;" horiz-adv-x="1024" d="M-12 1619v103h1048v-103h-1048z" />
<glyph unicode="&#xb0;" horiz-adv-x="819" d="M86 1172q0 133 93.5 226t225.5 93t225.5 -93.5t93.5 -225.5t-93.5 -225.5t-225.5 -93.5t-225.5 93.5t-93.5 225.5zM252 1172q0 -63 45 -108t108 -45t108 45t45 108t-45 108t-108 45t-108 -45t-45 -108z" />
<glyph unicode="&#xb1;" horiz-adv-x="1124" d="M50 0v263h1025v-263h-1025zM50 737v263h384v381h256v-381h385v-263h-385v-381h-256v381h-384z" />
<glyph unicode="&#xb2;" horiz-adv-x="559" d="M20 727q9 89 47.5 157t156.5 181q97 92 117.5 125.5t20.5 68.5q0 40 -22 61t-61 21q-41 0 -62 -24t-25 -91l-156 16q11 92 38.5 139t81.5 75t127 28q108 0 171.5 -61t63.5 -155q0 -47 -15.5 -92t-52.5 -95q-24 -34 -122 -127q-47 -45 -67 -69h257v-158h-498z" />
<glyph unicode="&#xb3;" horiz-adv-x="559" d="M32 946l151 20q12 -108 93 -108q39 0 64 29.5t25 78.5q0 45 -24 72t-61 27q-24 0 -74 -15l19 146q56 -1 84 21q27 21 27 58q0 31 -18 48.5t-50 17.5q-70 0 -81 -98l-146 26q22 107 66 152q62 63 165 63q96 0 158.5 -59.5t62.5 -144.5q0 -42 -20 -78t-60 -66 q56 -24 83.5 -68.5t27.5 -109.5q0 -102 -71.5 -172.5t-177.5 -70.5q-100 0 -165.5 60.5t-77.5 170.5z" />
<glyph unicode="&#xb4;" horiz-adv-x="559" d="M153 1192l113 299h259l-226 -299h-146z" />
<glyph unicode="&#xb5;" horiz-adv-x="1180" d="M111 -407v1469h279v-481q0 -208 42 -283q53 -97 157 -97q56 0 106 36t74 100t24 241v484h284v-1062h-262v128q-30 -56 -57 -84t-72.5 -49t-83.5 -21q-71 0 -126 39q-39 29 -86 115v-535h-279z" />
<glyph unicode="&#xb6;" d="M-2 1052q0 116 38.5 205t95.5 133.5t125 63.5q46 12 179 12h490v-261h-93v-1608h-195v1608h-118v-1608h-199v1047q-149 13 -236 118t-87 290z" />
<glyph unicode="&#xb7;" horiz-adv-x="559" d="M164 573v281h231v-281h-231z" />
<glyph unicode="&#xb8;" horiz-adv-x="559" d="M31 -285q84 -11 155 -11q68 0 102 26.5t34 67.5q0 37 -27.5 60.5t-77.5 23.5q-52 0 -107 -20l21 99q64 27 140 27q94 0 150.5 -52.5t56.5 -136.5q0 -96 -75 -157t-212 -61q-106 0 -160 16v118z" />
<glyph unicode="&#xb9;" horiz-adv-x="559" d="M75 1142v155q72 24 127.5 74.5t77.5 112.5h126v-757h-155v513q-77 -64 -176 -98z" />
<glyph unicode="&#xba;" horiz-adv-x="612" d="M21 1115q0 183 79.5 279.5t205.5 96.5q124 0 204 -97t80 -279t-79.5 -278.5t-204.5 -96.5t-205 96.5t-80 278.5zM194 1113q0 -110 30.5 -156.5t80.5 -46.5q47 0 77.5 47t30.5 156q0 111 -31 157t-80 46q-47 0 -77.5 -46.5t-30.5 -156.5z" />
<glyph unicode="&#xbb;" d="M87 70l213 452l-213 461h181l259 -461l-259 -452h-181zM409 70l212 452l-212 461h181l259 -461l-259 -452h-181z" />
<glyph unicode="&#xbc;" horiz-adv-x="1401" d="M75 1142v155q72 24 127.5 74.5t77.5 112.5h126v-757h-155v513q-77 -64 -176 -98zM278 -54l713 1538h130l-712 -1538h-131zM854 104v141l313 470h128v-466h89v-145h-89v-146h-146v146h-295zM1000 249h149v225z" />
<glyph unicode="&#xbd;" horiz-adv-x="1401" d="M75 1142v155q72 24 127.5 74.5t77.5 112.5h126v-757h-155v513q-77 -64 -176 -98zM278 -54l713 1538h130l-712 -1538h-131zM860 -42q9 89 47.5 157t156.5 181q97 92 117.5 125.5t20.5 68.5q0 40 -22 61t-61 21q-41 0 -62 -24t-25 -91l-156 16q11 92 38.5 139t81.5 75 t127 28q108 0 171.5 -61t63.5 -155q0 -47 -15.5 -92t-52.5 -95q-24 -34 -122 -127q-47 -45 -67 -69h257v-158h-498z" />
<glyph unicode="&#xbe;" horiz-adv-x="1401" d="M33 946l151 20q12 -108 93 -108q39 0 64 29.5t25 78.5q0 45 -24 72t-61 27q-24 0 -74 -15l19 146q56 -1 84 21q27 21 27 58q0 31 -18 48.5t-50 17.5q-70 0 -81 -98l-146 26q22 107 66 152q62 63 165 63q96 0 158.5 -59.5t62.5 -144.5q0 -42 -20 -78t-60 -66 q56 -24 83.5 -68.5t27.5 -109.5q0 -102 -71.5 -172.5t-177.5 -70.5q-100 0 -165.5 60.5t-77.5 170.5zM298 -54l713 1538h130l-712 -1538h-131zM855 104v141l313 470h128v-466h89v-145h-89v-146h-146v146h-295zM1001 249h149v225z" />
<glyph unicode="&#xbf;" horiz-adv-x="1026" d="M83 0q0 100 49 186t180 218q71 71 89 117.5t16 162.5h209l1 -72q0 -118 -35.5 -200.5t-131.5 -177.5q-107 -107 -130 -148t-23 -98q0 -81 57.5 -137t141.5 -56q184 0 229 247l212 -33q-22 -203 -139 -316t-294 -113q-185 0 -308 121t-123 299zM395 781v281h231v-281h-231 z" />
<glyph unicode="&#xc0;" horiz-adv-x="1212" d="M0 0l468 1466h257l481 -1466h-264l-105 333h-480l-99 -333h-258zM358 1863h258l114 -299h-146zM431 580h328l-165 544z" />
<glyph unicode="&#xc1;" horiz-adv-x="1212" d="M0 0l468 1466h257l481 -1466h-264l-105 333h-480l-99 -333h-258zM431 580h328l-165 544zM477 1564l113 299h259l-226 -299h-146z" />
<glyph unicode="&#xc2;" horiz-adv-x="1212" d="M0 0l468 1466h257l481 -1466h-264l-105 333h-480l-99 -333h-258zM326 1567l172 295h213l170 -295h-185l-95 149l-88 -149h-187zM431 580h328l-165 544z" />
<glyph unicode="&#xc3;" horiz-adv-x="1212" d="M0 0l468 1466h257l481 -1466h-264l-105 333h-480l-99 -333h-258zM313 1610q0 110 42.5 165.5t107.5 55.5q28 0 53 -8t81 -38q74 -40 110 -40q57 0 67 87h106q-1 -136 -41.5 -193.5t-104.5 -57.5q-27 0 -53 7q-19 5 -88 37q-83 39 -118 39q-25 0 -40.5 -19.5t-16.5 -67.5 h-104zM431 580h328l-165 544z" />
<glyph unicode="&#xc4;" horiz-adv-x="1212" d="M0 0l468 1466h257l481 -1466h-264l-105 333h-480l-99 -333h-258zM328 1621v241h198v-241h-198zM431 580h328l-165 544zM681 1621v241h198v-241h-198z" />
<glyph unicode="&#xc5;" horiz-adv-x="1212" d="M0 0l468 1466h257l481 -1466h-264l-105 333h-480l-99 -333h-258zM431 580h328l-165 544zM443 1714q0 85 48 140.5t113 55.5q64 0 112.5 -55.5t48.5 -140.5q0 -84 -48.5 -140t-112.5 -56t-112.5 56t-48.5 140zM531 1714q0 -38 22 -63.5t51 -25.5t51 25.5t22 63.5 q0 39 -22 64t-51 25t-51 -25t-22 -64z" />
<glyph unicode="&#xc6;" horiz-adv-x="1679" d="M-70 0l561 1466h1085v-248h-595v-326h549v-248h-549v-397h617v-247h-859v345h-417l-123 -345h-269zM411 601h330v643h-94z" />
<glyph unicode="&#xc7;" horiz-adv-x="1212" d="M80 720q0 375 169 587q147 184 395 184q202 0 338 -138q97 -98 142 -291l-240 -70q-23 119 -91.5 182.5t-161.5 63.5q-133 0 -217 -116t-84 -383q0 -277 82 -394t213 -117q96 0 166 74.5t101 236.5l235 -91q-55 -246 -183 -359.5t-315 -113.5q-235 0 -381 181 q-168 209 -168 564zM388 -297q84 -11 155 -11q68 0 102 26.5t34 67.5q0 37 -27.5 60.5t-77.5 23.5q-52 0 -107 -20l21 99q64 27 140 27q94 0 150.5 -52.5t56.5 -136.5q0 -96 -75 -157t-212 -61q-106 0 -160 16v118z" />
<glyph unicode="&#xc8;" horiz-adv-x="1120" d="M123 0v1466h892v-248h-650v-325h604v-247h-604v-399h672v-247h-914zM316 1863h258l114 -299h-146z" />
<glyph unicode="&#xc9;" horiz-adv-x="1120" d="M123 0v1466h892v-248h-650v-325h604v-247h-604v-399h672v-247h-914zM434 1564l113 299h259l-226 -299h-146z" />
<glyph unicode="&#xca;" horiz-adv-x="1120" d="M123 0v1466h892v-248h-650v-325h604v-247h-604v-399h672v-247h-914zM283 1567l172 295h213l170 -295h-185l-95 149l-88 -149h-187z" />
<glyph unicode="&#xcb;" horiz-adv-x="1120" d="M123 0v1466h892v-248h-650v-325h604v-247h-604v-399h672v-247h-914zM285 1621v241h198v-241h-198zM638 1621v241h198v-241h-198z" />
<glyph unicode="&#xcc;" horiz-adv-x="467" d="M-8 1863h258l114 -299h-146zM115 0v1466h242v-1466h-242z" />
<glyph unicode="&#xcd;" horiz-adv-x="467" d="M110 1564l113 299h259l-226 -299h-146zM115 0v1466h242v-1466h-242z" />
<glyph unicode="&#xce;" horiz-adv-x="467" d="M-41 1567l172 295h213l170 -295h-185l-95 149l-88 -149h-187zM115 0v1466h242v-1466h-242z" />
<glyph unicode="&#xcf;" horiz-adv-x="467" d="M-39 1621v241h198v-241h-198zM115 0v1466h242v-1466h-242zM314 1621v241h198v-241h-198z" />
<glyph unicode="&#xd0;" horiz-adv-x="1212" d="M-3 640v186h125v640h443q167 0 253 -37.5t157.5 -126t112.5 -232t41 -354.5q0 -188 -43 -329t-109 -222.5t-159.5 -123t-239.5 -41.5h-456v640h-125zM364 247h182q116 0 169 22t86 65.5t55.5 140.5t22.5 248q0 175 -24.5 268.5t-72 146t-116.5 68.5q-50 12 -193 12h-109 v-392h257v-186h-257v-393z" />
<glyph unicode="&#xd1;" horiz-adv-x="1212" d="M125 0v1466h236l492 -979v979h226v-1466h-244l-484 956v-956h-226zM313 1610q0 110 42.5 165.5t107.5 55.5q28 0 53 -8t81 -38q74 -40 110 -40q57 0 67 87h106q-1 -136 -41.5 -193.5t-104.5 -57.5q-27 0 -53 7q-19 5 -88 37q-83 39 -118 39q-25 0 -40.5 -19.5 t-16.5 -67.5h-104z" />
<glyph unicode="&#xd2;" horiz-adv-x="1307" d="M74 724q0 262 77.5 431.5t202.5 252.5t303 83q258 0 420.5 -197t162.5 -561q0 -368 -172 -575q-151 -183 -410 -183q-261 0 -412 181q-172 207 -172 568zM324 734q0 -253 96 -379.5t238 -126.5q143 0 237 125.5t94 385.5q0 255 -91.5 377t-239.5 122t-241 -123t-93 -381z M412 1863h258l114 -299h-146z" />
<glyph unicode="&#xd3;" horiz-adv-x="1307" d="M74 724q0 262 77.5 431.5t202.5 252.5t303 83q258 0 420.5 -197t162.5 -561q0 -368 -172 -575q-151 -183 -410 -183q-261 0 -412 181q-172 207 -172 568zM324 734q0 -253 96 -379.5t238 -126.5q143 0 237 125.5t94 385.5q0 255 -91.5 377t-239.5 122t-241 -123t-93 -381z M530 1564l113 299h259l-226 -299h-146z" />
<glyph unicode="&#xd4;" horiz-adv-x="1307" d="M74 724q0 262 77.5 431.5t202.5 252.5t303 83q258 0 420.5 -197t162.5 -561q0 -368 -172 -575q-151 -183 -410 -183q-261 0 -412 181q-172 207 -172 568zM324 734q0 -253 96 -379.5t238 -126.5q143 0 237 125.5t94 385.5q0 255 -91.5 377t-239.5 122t-241 -123t-93 -381z M379 1567l172 295h213l170 -295h-185l-95 149l-88 -149h-187z" />
<glyph unicode="&#xd5;" horiz-adv-x="1307" d="M74 724q0 262 77.5 431.5t202.5 252.5t303 83q258 0 420.5 -197t162.5 -561q0 -368 -172 -575q-151 -183 -410 -183q-261 0 -412 181q-172 207 -172 568zM324 734q0 -253 96 -379.5t238 -126.5q143 0 237 125.5t94 385.5q0 255 -91.5 377t-239.5 122t-241 -123t-93 -381z M366 1610q0 110 42.5 165.5t107.5 55.5q28 0 53 -8t81 -38q74 -40 110 -40q57 0 67 87h106q-1 -136 -41.5 -193.5t-104.5 -57.5q-27 0 -53 7q-19 5 -88 37q-83 39 -118 39q-25 0 -40.5 -19.5t-16.5 -67.5h-104z" />
<glyph unicode="&#xd6;" horiz-adv-x="1307" d="M74 724q0 262 77.5 431.5t202.5 252.5t303 83q258 0 420.5 -197t162.5 -561q0 -368 -172 -575q-151 -183 -410 -183q-261 0 -412 181q-172 207 -172 568zM324 734q0 -253 96 -379.5t238 -126.5q143 0 237 125.5t94 385.5q0 255 -91.5 377t-239.5 122t-241 -123t-93 -381z M381 1621v241h198v-241h-198zM734 1621v241h198v-241h-198z" />
<glyph unicode="&#xd7;" horiz-adv-x="981" d="M89 1025l152 186l249 -303l248 302l149 -182l-248 -302l250 -305l-152 -186l-250 305l-248 -302l-149 182l248 302z" />
<glyph unicode="&#xd8;" horiz-adv-x="1307" d="M52 42l140 192q-61 102 -86 208q-34 140 -34 302q0 356 175 566q150 181 408 181q216 0 361 -132l129 177l115 -122l-137 -188q115 -192 115 -504q0 -308 -136 -516q-151 -231 -440 -231q-223 0 -361 125l-132 -182zM323 735q0 -162 37 -272l505 690q-82 86 -209 86 q-147 0 -240 -123.5t-93 -380.5zM451 305q83 -90 203 -90q145 0 239.5 127.5t94.5 390.5q0 152 -33 263z" />
<glyph unicode="&#xd9;" horiz-adv-x="1212" d="M120 684v782h242v-794q0 -185 9 -241q16 -97 76.5 -150t159.5 -53q84 0 137 37.5t72.5 104t19.5 285.5v811h243v-770q0 -295 -31.5 -426.5t-142 -213t-291.5 -81.5q-188 0 -293.5 67.5t-153 190t-47.5 451.5zM358 1863h258l114 -299h-146z" />
<glyph unicode="&#xda;" horiz-adv-x="1212" d="M120 684v782h242v-794q0 -185 9 -241q16 -97 76.5 -150t159.5 -53q84 0 137 37.5t72.5 104t19.5 285.5v811h243v-770q0 -295 -31.5 -426.5t-142 -213t-291.5 -81.5q-188 0 -293.5 67.5t-153 190t-47.5 451.5zM476 1564l113 299h259l-226 -299h-146z" />
<glyph unicode="&#xdb;" horiz-adv-x="1212" d="M120 684v782h242v-794q0 -185 9 -241q16 -97 76.5 -150t159.5 -53q84 0 137 37.5t72.5 104t19.5 285.5v811h243v-770q0 -295 -31.5 -426.5t-142 -213t-291.5 -81.5q-188 0 -293.5 67.5t-153 190t-47.5 451.5zM325 1567l172 295h213l170 -295h-185l-95 149l-88 -149h-187z " />
<glyph unicode="&#xdc;" horiz-adv-x="1212" d="M120 684v782h242v-794q0 -185 9 -241q16 -97 76.5 -150t159.5 -53q84 0 137 37.5t72.5 104t19.5 285.5v811h243v-770q0 -295 -31.5 -426.5t-142 -213t-291.5 -81.5q-188 0 -293.5 67.5t-153 190t-47.5 451.5zM327 1621v241h198v-241h-198zM680 1621v241h198v-241h-198z " />
<glyph unicode="&#xdd;" horiz-adv-x="1120" d="M-2 1466h284l283 -580l278 580h279l-442 -851v-615h-242v617zM434 1564l113 299h259l-226 -299h-146z" />
<glyph unicode="&#xde;" horiz-adv-x="1120" d="M122 0v1466h242v-276h148q219 0 286 -22q106 -34 175.5 -144.5t69.5 -285.5q0 -159 -60 -266.5t-150 -151.5t-310 -44h-159v-276h-242zM364 525h134q147 0 190 17t73.5 68t30.5 124q0 77 -31 127.5t-72.5 65.5t-206.5 15h-118v-417z" />
<glyph unicode="&#xdf;" horiz-adv-x="1026" d="M114 0v952q0 195 24 283q35 129 121 192.5t214 63.5q159 0 246 -82.5t87 -221.5q0 -86 -50 -198q-53 -118 -53 -148q0 -29 15.5 -58.5t104.5 -138.5q83 -101 113.5 -174.5t30.5 -152.5q0 -153 -85 -247t-206 -94q-83 0 -155 51.5t-111 137.5l161 115q33 -79 85 -79 q32 0 56 29t24 74q0 38 -17.5 71t-119.5 151q-139 162 -139 254q0 60 54 195q41 104 48.5 132t7.5 58q0 46 -28.5 76t-70.5 30q-41 0 -72.5 -27t-42.5 -79t-11 -213v-952h-231z" />
<glyph unicode="&#xe0;" d="M60 289q0 90 33 157t93 107t192 71q160 37 223 69q0 88 -12.5 115.5t-46 45t-94.5 17.5q-62 0 -97.5 -28t-57.5 -105l-209 46q38 161 125.5 231.5t251.5 70.5q146 0 223 -41t110 -111.5t33 -256.5l-2 -328q0 -138 11 -205.5t41 -143.5h-228l-30 116q-59 -70 -126.5 -105 t-143.5 -35q-127 0 -208 85.5t-81 227.5zM214 1491h258l114 -299h-146zM291 318q0 -61 36.5 -102.5t91.5 -41.5q49 0 97 33.5t66.5 79.5t18.5 167v56q-44 -18 -137 -42q-107 -28 -140 -62t-33 -88z" />
<glyph unicode="&#xe1;" d="M60 289q0 90 33 157t93 107t192 71q160 37 223 69q0 88 -12.5 115.5t-46 45t-94.5 17.5q-62 0 -97.5 -28t-57.5 -105l-209 46q38 161 125.5 231.5t251.5 70.5q146 0 223 -41t110 -111.5t33 -256.5l-2 -328q0 -138 11 -205.5t41 -143.5h-228l-30 116q-59 -70 -126.5 -105 t-143.5 -35q-127 0 -208 85.5t-81 227.5zM291 318q0 -61 36.5 -102.5t91.5 -41.5q49 0 97 33.5t66.5 79.5t18.5 167v56q-44 -18 -137 -42q-107 -28 -140 -62t-33 -88zM352 1192l113 299h259l-226 -299h-146z" />
<glyph unicode="&#xe2;" d="M60 289q0 90 33 157t93 107t192 71q160 37 223 69q0 88 -12.5 115.5t-46 45t-94.5 17.5q-62 0 -97.5 -28t-57.5 -105l-209 46q38 161 125.5 231.5t251.5 70.5q146 0 223 -41t110 -111.5t33 -256.5l-2 -328q0 -138 11 -205.5t41 -143.5h-228l-30 116q-59 -70 -126.5 -105 t-143.5 -35q-127 0 -208 85.5t-81 227.5zM191 1196l172 295h213l170 -295h-185l-95 149l-88 -149h-187zM291 318q0 -61 36.5 -102.5t91.5 -41.5q49 0 97 33.5t66.5 79.5t18.5 167v56q-44 -18 -137 -42q-107 -28 -140 -62t-33 -88z" />
<glyph unicode="&#xe3;" d="M60 289q0 90 33 157t93 107t192 71q160 37 223 69q0 88 -12.5 115.5t-46 45t-94.5 17.5q-62 0 -97.5 -28t-57.5 -105l-209 46q38 161 125.5 231.5t251.5 70.5q146 0 223 -41t110 -111.5t33 -256.5l-2 -328q0 -138 11 -205.5t41 -143.5h-228l-30 116q-59 -70 -126.5 -105 t-143.5 -35q-127 0 -208 85.5t-81 227.5zM185 1238q0 110 42.5 165.5t107.5 55.5q28 0 53 -8t81 -38q74 -40 110 -40q57 0 67 87h106q-1 -136 -41.5 -193.5t-104.5 -57.5q-27 0 -53 7q-19 5 -88 37q-83 39 -118 39q-25 0 -40.5 -19.5t-16.5 -67.5h-104zM291 318 q0 -61 36.5 -102.5t91.5 -41.5q49 0 97 33.5t66.5 79.5t18.5 167v56q-44 -18 -137 -42q-107 -28 -140 -62t-33 -88z" />
<glyph unicode="&#xe4;" d="M60 289q0 90 33 157t93 107t192 71q160 37 223 69q0 88 -12.5 115.5t-46 45t-94.5 17.5q-62 0 -97.5 -28t-57.5 -105l-209 46q38 161 125.5 231.5t251.5 70.5q146 0 223 -41t110 -111.5t33 -256.5l-2 -328q0 -138 11 -205.5t41 -143.5h-228l-30 116q-59 -70 -126.5 -105 t-143.5 -35q-127 0 -208 85.5t-81 227.5zM193 1250v241h198v-241h-198zM291 318q0 -61 36.5 -102.5t91.5 -41.5q49 0 97 33.5t66.5 79.5t18.5 167v56q-44 -18 -137 -42q-107 -28 -140 -62t-33 -88zM546 1250v241h198v-241h-198z" />
<glyph unicode="&#xe5;" d="M60 289q0 90 33 157t93 107t192 71q160 37 223 69q0 88 -12.5 115.5t-46 45t-94.5 17.5q-62 0 -97.5 -28t-57.5 -105l-209 46q38 161 125.5 231.5t251.5 70.5q146 0 223 -41t110 -111.5t33 -256.5l-2 -328q0 -138 11 -205.5t41 -143.5h-228l-30 116q-59 -70 -126.5 -105 t-143.5 -35q-127 0 -208 85.5t-81 227.5zM291 318q0 -61 36.5 -102.5t91.5 -41.5q49 0 97 33.5t66.5 79.5t18.5 167v56q-44 -18 -137 -42q-107 -28 -140 -62t-33 -88zM308 1342q0 85 48 140.5t113 55.5q64 0 112.5 -55.5t48.5 -140.5q0 -84 -48.5 -140t-112.5 -56t-112.5 56 t-48.5 140zM396 1342q0 -38 22 -63.5t51 -25.5t51 25.5t22 63.5q0 39 -22 64t-51 25t-51 -25t-22 -64z" />
<glyph unicode="&#xe6;" horiz-adv-x="1493" d="M72 288q0 107 50 189q38 63 115 99q49 24 233 70q80 21 138 44q0 81 -13.5 112t-46.5 50t-83 19q-63 0 -102.5 -31t-57.5 -102l-208 49q42 161 132 230t265 69q172 0 266 -98q101 98 238 98q126 0 218.5 -65.5t145 -199t52.5 -373.5h-579q25 -258 181 -258q119 0 161 149 l226 -49q-94 -314 -384 -314q-186 0 -312 146q-61 -65 -153.5 -105.5t-184.5 -40.5q-135 0 -216 85.5t-81 226.5zM303 314q0 -61 36.5 -100.5t91.5 -39.5q52 0 98.5 35t61.5 85t15 214q-204 -67 -218 -74q-45 -19 -65 -49.5t-20 -70.5zM838 624h349q-6 98 -28.5 146.5 t-62 74.5t-88.5 26q-84 0 -128.5 -77.5t-41.5 -169.5z" />
<glyph unicode="&#xe7;" d="M70 528q0 273 116.5 415.5t305.5 142.5q153 0 249.5 -81t138.5 -257l-227 -50q-25 167 -157 167q-85 0 -137 -72t-52 -243q0 -189 52 -267t139 -78q65 0 107 44.5t60 157.5l227 -47q-70 -384 -403 -384q-213 0 -316 162t-103 390zM251 -285q84 -11 155 -11q68 0 102 26.5 t34 67.5q0 37 -27.5 60.5t-77.5 23.5q-52 0 -107 -20l21 99q64 27 140 27q94 0 150.5 -52.5t56.5 -136.5q0 -96 -75 -157t-212 -61q-106 0 -160 16v118z" />
<glyph unicode="&#xe8;" d="M54 525q0 266 125 426q106 135 274 135q187 0 293 -138q122 -158 122 -466l-1 -32h-577q2 -126 56.5 -195t131.5 -69q111 0 148 152l229 -47q-46 -160 -143 -237.5t-236 -77.5q-193 0 -298 129q-124 150 -124 420zM206 1491h258l114 -299h-146zM294 622h345 q-3 124 -53 186.5t-119 62.5q-73 0 -123 -65q-51 -66 -50 -184z" />
<glyph unicode="&#xe9;" d="M54 525q0 266 125 426q106 135 274 135q187 0 293 -138q122 -158 122 -466l-1 -32h-577q2 -126 56.5 -195t131.5 -69q111 0 148 152l229 -47q-46 -160 -143 -237.5t-236 -77.5q-193 0 -298 129q-124 150 -124 420zM294 622h345q-3 124 -53 186.5t-119 62.5 q-73 0 -123 -65q-51 -66 -50 -184zM344 1192l113 299h259l-226 -299h-146z" />
<glyph unicode="&#xea;" d="M54 525q0 266 125 426q106 135 274 135q187 0 293 -138q122 -158 122 -466l-1 -32h-577q2 -126 56.5 -195t131.5 -69q111 0 148 152l229 -47q-46 -160 -143 -237.5t-236 -77.5q-193 0 -298 129q-124 150 -124 420zM183 1196l172 295h213l170 -295h-185l-95 149l-88 -149 h-187zM294 622h345q-3 124 -53 186.5t-119 62.5q-73 0 -123 -65q-51 -66 -50 -184z" />
<glyph unicode="&#xeb;" d="M54 525q0 266 125 426q106 135 274 135q187 0 293 -138q122 -158 122 -466l-1 -32h-577q2 -126 56.5 -195t131.5 -69q111 0 148 152l229 -47q-46 -160 -143 -237.5t-236 -77.5q-193 0 -298 129q-124 150 -124 420zM185 1250v241h198v-241h-198zM294 622h345 q-3 124 -53 186.5t-119 62.5q-73 0 -123 -65q-51 -66 -50 -184zM538 1250v241h198v-241h-198z" />
<glyph unicode="&#xec;" horiz-adv-x="467" d="M-19 1491h258l114 -299h-146zM121 0v1062h231v-1062h-231z" />
<glyph unicode="&#xed;" horiz-adv-x="467" d="M120 1192l113 299h259l-226 -299h-146zM121 0v1062h231v-1062h-231z" />
<glyph unicode="&#xee;" horiz-adv-x="467" d="M-41 1196l172 295h213l170 -295h-185l-95 149l-88 -149h-187zM121 0v1062h231v-1062h-231z" />
<glyph unicode="&#xef;" horiz-adv-x="467" d="M-39 1250v241h198v-241h-198zM121 0v1062h231v-1062h-231zM314 1250v241h198v-241h-198z" />
<glyph unicode="&#xf0;" horiz-adv-x="1026" d="M68 533q0 251 141 408q108 121 241 121q43 0 82 -13.5t100 -55.5q-49 109 -119 217l-206 -119l-35 96l179 103q-81 91 -179 176h241q46 -44 89 -89l148 89l37 -98l-118 -67q150 -185 222.5 -378t72.5 -380q0 -265 -130 -416.5t-323 -151.5q-187 0 -307 142 q-136 161 -136 416zM308 530q0 -160 60 -243t145 -83q86 0 148.5 83t62.5 233q0 151 -64 236t-148 85q-83 0 -143.5 -80t-60.5 -231z" />
<glyph unicode="&#xf1;" horiz-adv-x="1026" d="M119 0v1062h214v-156q57 90 128.5 135t158.5 45q101 0 170.5 -52.5t96 -135t26.5 -238.5v-660h-231v542q0 163 -13 217t-48.5 83t-80.5 29q-58 0 -105 -37.5t-66 -103.5t-19 -249v-481h-231zM232 1238q0 110 42.5 165.5t107.5 55.5q28 0 53 -8t81 -38q74 -40 110 -40 q57 0 67 87h106q-1 -136 -41.5 -193.5t-104.5 -57.5q-27 0 -53 7q-19 5 -88 37q-83 39 -118 39q-25 0 -40.5 -19.5t-16.5 -67.5h-104z" />
<glyph unicode="&#xf2;" horiz-adv-x="1026" d="M67 546q0 156 62 284t162 192t225 64q210 0 330 -164.5t120 -384.5q0 -164 -62.5 -296t-164 -198.5t-222.5 -66.5q-194 0 -322 148t-128 422zM261 1491h258l114 -299h-146zM303 531q0 -161 63 -243.5t152 -82.5q87 0 149 83t62 245q0 158 -63 241t-151 83 q-87 0 -149.5 -83t-62.5 -243z" />
<glyph unicode="&#xf3;" horiz-adv-x="1026" d="M67 546q0 156 62 284t162 192t225 64q210 0 330 -164.5t120 -384.5q0 -164 -62.5 -296t-164 -198.5t-222.5 -66.5q-194 0 -322 148t-128 422zM303 531q0 -161 63 -243.5t152 -82.5q87 0 149 83t62 245q0 158 -63 241t-151 83q-87 0 -149.5 -83t-62.5 -243zM400 1192 l113 299h259l-226 -299h-146z" />
<glyph unicode="&#xf4;" horiz-adv-x="1026" d="M67 546q0 156 62 284t162 192t225 64q210 0 330 -164.5t120 -384.5q0 -164 -62.5 -296t-164 -198.5t-222.5 -66.5q-194 0 -322 148t-128 422zM239 1196l172 295h213l170 -295h-185l-95 149l-88 -149h-187zM303 531q0 -161 63 -243.5t152 -82.5q87 0 149 83t62 245 q0 158 -63 241t-151 83q-87 0 -149.5 -83t-62.5 -243z" />
<glyph unicode="&#xf5;" horiz-adv-x="1026" d="M67 546q0 156 62 284t162 192t225 64q210 0 330 -164.5t120 -384.5q0 -164 -62.5 -296t-164 -198.5t-222.5 -66.5q-194 0 -322 148t-128 422zM233 1238q0 110 42.5 165.5t107.5 55.5q28 0 53 -8t81 -38q74 -40 110 -40q57 0 67 87h106q-1 -136 -41.5 -193.5t-104.5 -57.5 q-27 0 -53 7q-19 5 -88 37q-83 39 -118 39q-25 0 -40.5 -19.5t-16.5 -67.5h-104zM303 531q0 -161 63 -243.5t152 -82.5q87 0 149 83t62 245q0 158 -63 241t-151 83q-87 0 -149.5 -83t-62.5 -243z" />
<glyph unicode="&#xf6;" horiz-adv-x="1026" d="M67 546q0 156 62 284t162 192t225 64q210 0 330 -164.5t120 -384.5q0 -164 -62.5 -296t-164 -198.5t-222.5 -66.5q-194 0 -322 148t-128 422zM241 1250v241h198v-241h-198zM303 531q0 -161 63 -243.5t152 -82.5q87 0 149 83t62 245q0 158 -63 241t-151 83 q-87 0 -149.5 -83t-62.5 -243zM594 1250v241h198v-241h-198z" />
<glyph unicode="&#xf7;" horiz-adv-x="1124" d="M49 592v263h1025v-263h-1025zM421 185v281h281v-281h-281zM421 981v281h281v-281h-281z" />
<glyph unicode="&#xf8;" horiz-adv-x="1026" d="M72 539q0 160 61 288.5t162 193.5t226 65q147 0 256 -87l85 120l92 -92l-89 -124q46 -66 76 -165t30 -205q0 -163 -62.5 -293t-165.5 -197t-224 -67q-140 0 -252 84l-95 -133l-89 95l94 134q-105 157 -105 383zM300 540q0 -100 24 -178l323 455q-55 54 -125 54 q-90 0 -156 -86t-66 -245zM396 242q55 -48 123 -48q93 0 158 85t65 244q0 89 -25 172z" />
<glyph unicode="&#xf9;" horiz-adv-x="1026" d="M115 390v672h231v-488q0 -209 10.5 -265.5t46.5 -87.5t87 -31q58 0 107 40.5t64.5 104t15.5 279.5v448h230v-1062h-214v159q-48 -86 -126 -134.5t-163 -48.5q-86 0 -154 45t-101.5 128t-33.5 241zM256 1491h258l114 -299h-146z" />
<glyph unicode="&#xfa;" horiz-adv-x="1026" d="M115 390v672h231v-488q0 -209 10.5 -265.5t46.5 -87.5t87 -31q58 0 107 40.5t64.5 104t15.5 279.5v448h230v-1062h-214v159q-48 -86 -126 -134.5t-163 -48.5q-86 0 -154 45t-101.5 128t-33.5 241zM395 1192l113 299h259l-226 -299h-146z" />
<glyph unicode="&#xfb;" horiz-adv-x="1026" d="M115 390v672h231v-488q0 -209 10.5 -265.5t46.5 -87.5t87 -31q58 0 107 40.5t64.5 104t15.5 279.5v448h230v-1062h-214v159q-48 -86 -126 -134.5t-163 -48.5q-86 0 -154 45t-101.5 128t-33.5 241zM233 1196l172 295h213l170 -295h-185l-95 149l-88 -149h-187z" />
<glyph unicode="&#xfc;" horiz-adv-x="1026" d="M115 390v672h231v-488q0 -209 10.5 -265.5t46.5 -87.5t87 -31q58 0 107 40.5t64.5 104t15.5 279.5v448h230v-1062h-214v159q-48 -86 -126 -134.5t-163 -48.5q-86 0 -154 45t-101.5 128t-33.5 241zM236 1250v241h198v-241h-198zM589 1250v241h198v-241h-198z" />
<glyph unicode="&#xfd;" d="M11 1062h246l207 -754l204 754h238l-307 -1022l-59 -199q-39 -112 -77.5 -164t-98 -80t-146.5 -28q-67 0 -131 17l-20 220q54 -13 97 -13q66 0 108.5 44t69.5 160zM342 1192l113 299h259l-226 -299h-146z" />
<glyph unicode="&#xfe;" horiz-adv-x="1026" d="M114 -404v1870h231v-528q69 86 127 117t128 31q149 0 256.5 -142t107.5 -403q0 -274 -108 -419.5t-257 -145.5q-69 0 -128.5 33.5t-125.5 121.5v-535h-231zM343 554q0 -137 26 -209t74 -109.5t101 -37.5q76 0 130 79.5t54 251.5q0 181 -54.5 261.5t-138.5 80.5 q-80 0 -136 -78t-56 -239z" />
<glyph unicode="&#xff;" d="M11 1062h246l207 -754l204 754h238l-307 -1022l-59 -199q-39 -112 -77.5 -164t-98 -80t-146.5 -28q-67 0 -131 17l-20 220q54 -13 97 -13q66 0 108.5 44t69.5 160zM188 1250v241h198v-241h-198zM541 1250v241h198v-241h-198z" />
<glyph unicode="&#x152;" horiz-adv-x="1679" d="M59 734q0 383 146 586q123 171 324 171q99 0 185 -49.5t141 -137.5v162h749v-248h-539v-326h494v-248h-494v-395h562v-249h-772v173q-48 -99 -127 -148.5t-190 -49.5q-210 0 -330 166q-149 208 -149 593zM309 756q0 -294 80 -422q62 -99 186 -99q125 0 185 98 q80 128 80 424q0 265 -72.5 373.5t-192.5 108.5t-186 -99q-80 -120 -80 -384z" />
<glyph unicode="&#x153;" horiz-adv-x="1585" d="M72 531q0 168 61 298t159.5 193.5t224.5 63.5q91 0 167 -37t137 -111q112 148 291 148q116 0 209.5 -67t145 -204t49.5 -367h-573q8 -131 59 -194.5t125 -63.5q53 0 91 34.5t63 116.5l224 -44q-41 -156 -141.5 -238.5t-237.5 -82.5q-87 0 -167 37.5t-140 110.5 q-65 -74 -141 -111t-164 -37q-187 0 -314.5 151.5t-127.5 403.5zM309 515q0 -116 55 -211t151 -95q84 0 142.5 81.5t58.5 249.5q0 153 -58.5 233t-142.5 80q-89 0 -147.5 -82t-58.5 -256zM945 624h350q-7 133 -56.5 194t-122.5 61q-79 0 -128 -78q-34 -56 -43 -177z" />
<glyph unicode="&#x178;" horiz-adv-x="1120" d="M-2 1466h284l283 -580l278 580h279l-442 -851v-615h-242v617zM285 1621v241h198v-241h-198zM638 1621v241h198v-241h-198z" />
<glyph unicode="&#x2c6;" horiz-adv-x="559" d="M2 1196l172 295h213l170 -295h-185l-95 149l-88 -149h-187z" />
<glyph unicode="&#x2dc;" horiz-adv-x="559" d="M-11 1238q0 110 42.5 165.5t107.5 55.5q28 0 53 -8t81 -38q74 -40 110 -40q57 0 67 87h106q-1 -136 -41.5 -193.5t-104.5 -57.5q-27 0 -53 7q-19 5 -88 37q-83 39 -118 39q-25 0 -40.5 -19.5t-16.5 -67.5h-104z" />
<glyph unicode="&#x2000;" horiz-adv-x="955" />
<glyph unicode="&#x2001;" horiz-adv-x="1910" />
<glyph unicode="&#x2002;" horiz-adv-x="955" />
<glyph unicode="&#x2003;" horiz-adv-x="1910" />
<glyph unicode="&#x2004;" horiz-adv-x="636" />
<glyph unicode="&#x2005;" horiz-adv-x="477" />
<glyph unicode="&#x2006;" horiz-adv-x="318" />
<glyph unicode="&#x2007;" horiz-adv-x="318" />
<glyph unicode="&#x2008;" horiz-adv-x="238" />
<glyph unicode="&#x2009;" horiz-adv-x="382" />
<glyph unicode="&#x200a;" horiz-adv-x="106" />
<glyph unicode="&#x2010;" horiz-adv-x="559" d="M53 391v281h453v-281h-453z" />
<glyph unicode="&#x2011;" horiz-adv-x="559" d="M53 391v281h453v-281h-453z" />
<glyph unicode="&#x2012;" horiz-adv-x="559" d="M53 391v281h453v-281h-453z" />
<glyph unicode="&#x2013;" d="M-3 426v210h934v-210h-934z" />
<glyph unicode="&#x2014;" horiz-adv-x="1679" d="M0 426v210h1679v-210h-1679z" />
<glyph unicode="&#x2018;" horiz-adv-x="467" d="M125 857v202q0 171 44.5 264t159.5 143l45 -117q-67 -27 -97.5 -76t-32.5 -135h112v-281h-231z" />
<glyph unicode="&#x2019;" horiz-adv-x="467" d="M93 974q68 28 98 76.5t32 134.5h-111v281h230v-202q0 -170 -40 -254q-49 -102 -164 -153z" />
<glyph unicode="&#x201a;" horiz-adv-x="467" d="M96 -211q68 28 98 75.5t32 135.5h-111v281h230v-201q0 -171 -40 -254q-49 -103 -164 -153z" />
<glyph unicode="&#x201c;" horiz-adv-x="840" d="M108 857v202q0 171 44.5 264t159.5 143l45 -117q-67 -27 -97.5 -76t-32.5 -135h112v-281h-231zM493 857v202q0 170 39 253q49 103 165 154l45 -117q-68 -27 -98.5 -76t-31.5 -135h111v-281h-230z" />
<glyph unicode="&#x201d;" horiz-adv-x="840" d="M86 974q68 28 98 76.5t32 134.5h-111v281h230v-202q0 -170 -40 -254q-49 -102 -164 -153zM473 974q68 28 98.5 77.5t31.5 133.5h-111v281h230v-202q0 -169 -39 -253q-49 -103 -165 -154z" />
<glyph unicode="&#x201e;" horiz-adv-x="840" d="M92 -211q68 28 98 76.5t32 134.5h-111v281h230v-201q0 -171 -40 -254q-49 -103 -164 -153zM479 -211q68 28 98.5 78t31.5 133h-111v281h230v-201q0 -170 -39 -253q-49 -104 -165 -154z" />
<glyph unicode="&#x2022;" horiz-adv-x="588" d="M54 724q0 127 73 211t169 84q97 0 170 -84t73 -211t-73 -211.5t-170 -84.5q-96 0 -169 84.5t-73 211.5z" />
<glyph unicode="&#x2026;" horiz-adv-x="1679" d="M165 0v281h231v-281h-231zM725 0v281h230v-281h-230zM1285 0v281h230v-281h-230z" />
<glyph unicode="&#x202f;" horiz-adv-x="382" />
<glyph unicode="&#x2039;" horiz-adv-x="559" d="M62 532l259 451h181l-212 -451l212 -462h-181z" />
<glyph unicode="&#x203a;" horiz-adv-x="559" d="M61 70l213 452l-213 461h181l259 -461l-259 -452h-181z" />
<glyph unicode="&#x205f;" horiz-adv-x="477" />
<glyph unicode="&#x20ac;" d="M-27 514l27 156h80v131h-107l27 155h98q53 260 194.5 397.5t348.5 137.5q136 0 242 -61l-49 -277q-74 84 -199 84q-228 0 -287 -281h451l-29 -155h-438l-2 -15v-79q0 -21 2 -37h418l-27 -156h-373q56 -287 283 -287q142 0 241 119v-305q-105 -66 -245 -66 q-206 0 -345.5 139t-187.5 400h-123z" />
<glyph unicode="&#x2122;" horiz-adv-x="1679" d="M177 1324v142h545v-142h-201v-677h-136v677h-208zM803 647v819h213l122 -564l123 564h212v-819h-129v653l-145 -653h-124l-143 653v-653h-129z" />
<glyph unicode="&#x25fc;" horiz-adv-x="1060" d="M0 0v1060h1060v-1060h-1060z" />
<glyph unicode="&#xfb01;" horiz-adv-x="1026" d="M25 841v221h128v80q0 145 27.5 210t89 102t151.5 37q98 0 192 -36l-30 -196q-56 16 -107 16q-49 0 -71 -28t-22 -110v-75h172v-221h-172v-841h-230v841h-128zM672 0v1062h230v-1062h-230zM672 1206v260h230v-260h-230z" />
<glyph unicode="&#xfb02;" horiz-adv-x="1026" d="M25 841v221h128v80q0 145 27.5 210t89 102t151.5 37q98 0 192 -36l-30 -196q-56 16 -107 16q-49 0 -71 -28t-22 -110v-75h172v-221h-172v-841h-230v841h-128zM672 0v1466h231v-1466h-231z" />
</font>
</defs>
</svg>
